<mxfile host="app.diagrams.net" agent="Mozilla/5.0 (Windows NT 10.0; Win64; x64) AppleWebKit/537.36 (KHTML, like Gecko) Chrome/133.0.0.0 Safari/537.36" version="26.1.0">
  <diagram name="Page-1" id="E1clJ-vo8N5P6Af11tzl">
    <mxGraphModel dx="6547" dy="4219" grid="1" gridSize="10" guides="1" tooltips="1" connect="1" arrows="1" fold="1" page="1" pageScale="1" pageWidth="4681" pageHeight="3300" math="0" shadow="0">
      <root>
        <mxCell id="0" />
        <mxCell id="1" parent="0" />
        <mxCell id="gpong3w6HoHgrcKHU_dl-1" value="Drone" style="swimlane;fontStyle=1;align=center;verticalAlign=top;childLayout=stackLayout;horizontal=1;startSize=26;horizontalStack=0;resizeParent=1;resizeParentMax=0;resizeLast=0;collapsible=1;marginBottom=0;whiteSpace=wrap;html=1;" parent="1" vertex="1">
          <mxGeometry x="-2190" y="-1040" width="320" height="1030" as="geometry" />
        </mxCell>
        <mxCell id="gpong3w6HoHgrcKHU_dl-2" value="&lt;div&gt;+&amp;nbsp;&lt;u&gt;BASE_X: float = 0.0&lt;/u&gt;&lt;/div&gt;&lt;div&gt;+&amp;nbsp;&lt;span style=&quot;background-color: transparent;&quot;&gt;&lt;u&gt;BASE_Y: float = 0.0&lt;/u&gt;&lt;/span&gt;&lt;/div&gt;&lt;div&gt;&lt;span style=&quot;background-color: transparent;&quot;&gt;+&lt;u&gt; ARRIVAL_DISTANCE_THRESHOLD: float = 10.0&lt;/u&gt;&lt;/span&gt;&lt;/div&gt;&lt;div&gt;&lt;span style=&quot;background-color: transparent;&quot;&gt;-&lt;u&gt; TOP_SPEED: float = 20.0&lt;/u&gt;&lt;/span&gt;&lt;/div&gt;&lt;div&gt;- &lt;u&gt;ACCEL_RATE: float = 3.0f&lt;/u&gt;&lt;/div&gt;&lt;div&gt;-&lt;u&gt; DECEL_RATE: float = -5.0&lt;/u&gt;&lt;/div&gt;&lt;div&gt;- &lt;u&gt;CRUISE_ALTITUDE: float = 50.0&lt;/u&gt;&lt;/div&gt;&lt;div&gt;-&lt;u&gt; VERTICAL_SPEED: float = 5.0&lt;/u&gt;&lt;/div&gt;&lt;div&gt;- &lt;u&gt;BASE_POSITION: Position = &amp;lt;val&amp;gt;&lt;/u&gt;&lt;/div&gt;- &lt;u&gt;TOP_SPEED: float = 20.0&lt;/u&gt;&lt;div&gt;- &lt;u&gt;TAKEOFF_ACCEL_RATE&lt;/u&gt;&lt;u style=&quot;background-color: transparent; color: light-dark(rgb(0, 0, 0), rgb(255, 255, 255));&quot;&gt;: float&lt;/u&gt;&lt;u style=&quot;background-color: transparent; color: light-dark(rgb(0, 0, 0), rgb(255, 255, 255));&quot;&gt;&amp;nbsp;= 3.0&lt;/u&gt;&lt;/div&gt;&lt;div&gt;- &lt;u&gt;LAND_DECEL_RATE&lt;/u&gt;&lt;u style=&quot;background-color: transparent; color: light-dark(rgb(0, 0, 0), rgb(255, 255, 255));&quot;&gt;: float&lt;/u&gt;&lt;u style=&quot;background-color: transparent; color: light-dark(rgb(0, 0, 0), rgb(255, 255, 255));&quot;&gt;&amp;nbsp;= 5.0&lt;/u&gt;&lt;/div&gt;&lt;div&gt;- &lt;u&gt;ARRIVAL_DISTANCE_THRESHOLD: float = 25.0&lt;/u&gt;&lt;/div&gt;&lt;div&gt;- id: int&lt;/div&gt;&lt;div&gt;- agentTank: AgentTank&lt;/div&gt;&lt;div&gt;- position: Position&lt;/div&gt;&lt;div&gt;- states:&amp;nbsp;&lt;span style=&quot;background-color: transparent; color: light-dark(rgb(0, 0, 0), rgb(255, 255, 255));&quot;&gt;Map&amp;lt;DroneStateID, DroneState&amp;gt;&lt;/span&gt;&lt;/div&gt;&lt;div&gt;&lt;span style=&quot;background-color: transparent;&quot;&gt;- currState: DroneState&lt;/span&gt;&lt;/div&gt;&lt;div&gt;&lt;span style=&quot;background-color: transparent;&quot;&gt;&lt;div&gt;- currSpeed: float&lt;/div&gt;&lt;div&gt;- currAltitude: float&lt;/div&gt;&lt;div&gt;- decelDistance: float&lt;/div&gt;&lt;div&gt;- droneManager: DroneManager&lt;/div&gt;&lt;/span&gt;&lt;/div&gt;&lt;div&gt;&lt;div&gt;- currStateID: DroneStateID&lt;/div&gt;&lt;div&gt;&lt;span style=&quot;background-color: transparent; color: light-dark(rgb(0, 0, 0), rgb(255, 255, 255));&quot;&gt;- currTask: DroneTask&lt;/span&gt;&lt;/div&gt;&lt;div&gt;- newTaskFlag: boolean&lt;/div&gt;&lt;div&gt;- destination: Position&lt;/div&gt;&lt;div&gt;- zoneToService: Zone&lt;/div&gt;&lt;/div&gt;&lt;div&gt;&lt;br&gt;&lt;/div&gt;" style="text;strokeColor=none;fillColor=none;align=left;verticalAlign=top;spacingLeft=4;spacingRight=4;overflow=hidden;rotatable=0;points=[[0,0.5],[1,0.5]];portConstraint=eastwest;whiteSpace=wrap;html=1;" parent="gpong3w6HoHgrcKHU_dl-1" vertex="1">
          <mxGeometry y="26" width="320" height="404" as="geometry" />
        </mxCell>
        <mxCell id="gpong3w6HoHgrcKHU_dl-3" value="" style="line;strokeWidth=1;fillColor=none;align=left;verticalAlign=middle;spacingTop=-1;spacingLeft=3;spacingRight=3;rotatable=0;labelPosition=right;points=[];portConstraint=eastwest;strokeColor=inherit;" parent="gpong3w6HoHgrcKHU_dl-1" vertex="1">
          <mxGeometry y="430" width="320" height="8" as="geometry" />
        </mxCell>
        <mxCell id="gpong3w6HoHgrcKHU_dl-4" value="+ Drone(id: int, droneManager: DroneManager)&lt;div&gt;+ run(): void&lt;br&gt;&lt;div&gt;- addState(stateID: DroneStateID, state: DroneState): void&lt;br&gt;&lt;div&gt;+ updateState(stateID: DroneStateID): void&lt;/div&gt;&lt;div&gt;+ getCurrStateID(): DroneStateID&lt;/div&gt;&lt;div&gt;+ setNewTaskFlag(): void&lt;/div&gt;&lt;div&gt;+ refillAgentTank(): void&lt;/div&gt;&lt;div&gt;+ getStatus(): DroneStatus&lt;/div&gt;&lt;div&gt;+ setStatus(status: DroneStatus): void&lt;/div&gt;&lt;div&gt;+ getPosition(): Position&lt;/div&gt;&lt;div&gt;+ getDestination(): Position&lt;/div&gt;&lt;div&gt;+ setDestination(position: Position): void&lt;/div&gt;&lt;div&gt;- getDecelDistance(): float&lt;/div&gt;&lt;div&gt;&lt;span style=&quot;background-color: transparent; color: light-dark(rgb(0, 0, 0), rgb(255, 255, 255));&quot;&gt;- setDecelDistance(): void&lt;/span&gt;&lt;/div&gt;&lt;div&gt;&lt;span style=&quot;background-color: transparent;&quot;&gt;+ getDistanceFromDestination(): float&lt;/span&gt;&lt;/div&gt;&lt;div&gt;&lt;span style=&quot;background-color: transparent;&quot;&gt;+ getId(): int&lt;/span&gt;&lt;/div&gt;&lt;div&gt;&lt;span style=&quot;background-color: transparent;&quot;&gt;+ getZoneToService(): Zone&lt;/span&gt;&lt;/div&gt;&lt;div&gt;&lt;span style=&quot;background-color: transparent;&quot;&gt;+ setZoneToService(zone: Zone): void&lt;/span&gt;&lt;/div&gt;&lt;div&gt;&lt;span style=&quot;background-color: transparent;&quot;&gt;+ getAgentTankAmount(): float&lt;/span&gt;&lt;/div&gt;&lt;div&gt;&lt;span style=&quot;background-color: transparent;&quot;&gt;+ setCurrTask(task: DroneTask): void&lt;/span&gt;&lt;/div&gt;&lt;div&gt;&lt;span style=&quot;background-color: transparent;&quot;&gt;+ equals(obj: Object): boolean&lt;/span&gt;&lt;/div&gt;&lt;div&gt;&lt;span style=&quot;background-color: transparent;&quot;&gt;+ toString(): String&lt;/span&gt;&lt;/div&gt;&lt;div&gt;&lt;span style=&quot;background-color: transparent;&quot;&gt;+ sendDroneInfo(): void&lt;/span&gt;&lt;/div&gt;&lt;div&gt;+ eventReqServiceZone(): void&lt;/div&gt;&lt;div&gt;+ eventReachMaxHeight(): void&lt;/div&gt;&lt;div&gt;+ eventReachTopSpeed(): void&lt;/div&gt;&lt;div&gt;+ eventReachDecelRange(): void&lt;/div&gt;&lt;div&gt;+ eventReachDestination(): void&lt;/div&gt;&lt;div&gt;+ eventReqRelAgent(): void&lt;/div&gt;&lt;div&gt;+ eventFireExtinguished(): void&lt;/div&gt;&lt;div&gt;+ eventReqRecall(): void&lt;/div&gt;&lt;div&gt;+ eventLanded(): void&lt;/div&gt;&lt;div&gt;+ releaseAgent(): void&lt;/div&gt;&lt;div&gt;+ stopAgent(): void&lt;/div&gt;&lt;div&gt;+ takeoff(): void&lt;/div&gt;&lt;div&gt;+ accelerate(): void&lt;/div&gt;&lt;div&gt;+ fly(): void&lt;/div&gt;&lt;div&gt;+ decelerate(): void&lt;/div&gt;&lt;div&gt;+ land(): void&lt;/div&gt;&lt;div&gt;+ updatePosition(distance: float): void&lt;/div&gt;&lt;div&gt;&lt;br&gt;&lt;/div&gt;&lt;/div&gt;&lt;/div&gt;" style="text;strokeColor=none;fillColor=none;align=left;verticalAlign=top;spacingLeft=4;spacingRight=4;overflow=hidden;rotatable=0;points=[[0,0.5],[1,0.5]];portConstraint=eastwest;whiteSpace=wrap;html=1;" parent="gpong3w6HoHgrcKHU_dl-1" vertex="1">
          <mxGeometry y="438" width="320" height="592" as="geometry" />
        </mxCell>
        <mxCell id="gpong3w6HoHgrcKHU_dl-5" value="AgentTank" style="swimlane;fontStyle=1;align=center;verticalAlign=top;childLayout=stackLayout;horizontal=1;startSize=26;horizontalStack=0;resizeParent=1;resizeParentMax=0;resizeLast=0;collapsible=1;marginBottom=0;whiteSpace=wrap;html=1;" parent="1" vertex="1">
          <mxGeometry x="-2530" y="-700" width="220" height="250" as="geometry" />
        </mxCell>
        <mxCell id="gpong3w6HoHgrcKHU_dl-6" value="&lt;div&gt;+ &lt;u&gt;CAPACITY&lt;span style=&quot;color: light-dark(rgb(0, 0, 0), rgb(255, 255, 255)); background-color: transparent;&quot;&gt;: float&lt;/span&gt;&lt;span style=&quot;color: light-dark(rgb(0, 0, 0), rgb(255, 255, 255)); background-color: transparent;&quot;&gt;&amp;nbsp;= 100.0&lt;/span&gt;&lt;/u&gt;&lt;br&gt;&lt;/div&gt;+&amp;nbsp;&lt;u&gt;AGENT_DROP_RATE:&lt;span style=&quot;color: light-dark(rgb(0, 0, 0), rgb(255, 255, 255)); background-color: transparent;&quot;&gt;&amp;nbsp;float&lt;/span&gt;&lt;span style=&quot;color: light-dark(rgb(0, 0, 0), rgb(255, 255, 255)); background-color: transparent;&quot;&gt;&amp;nbsp;= 1.0&lt;/span&gt;&lt;/u&gt;&lt;div&gt;+&amp;nbsp;&lt;u&gt;NOZZLE_TIME&lt;/u&gt;&lt;u style=&quot;color: light-dark(rgb(0, 0, 0), rgb(255, 255, 255)); background-color: transparent;&quot;&gt;: long&amp;nbsp;&lt;/u&gt;&lt;u style=&quot;color: light-dark(rgb(0, 0, 0), rgb(255, 255, 255)); background-color: transparent;&quot;&gt;= 2000&lt;/u&gt;&lt;u style=&quot;color: light-dark(rgb(0, 0, 0), rgb(255, 255, 255)); background-color: transparent;&quot;&gt;&lt;br&gt;&lt;/u&gt;&lt;/div&gt;&lt;div&gt;- currAgentAmount: float&lt;/div&gt;&lt;div&gt;- isNozzleOpen: boolean&lt;/div&gt;" style="text;strokeColor=none;fillColor=none;align=left;verticalAlign=top;spacingLeft=4;spacingRight=4;overflow=hidden;rotatable=0;points=[[0,0.5],[1,0.5]];portConstraint=eastwest;whiteSpace=wrap;html=1;" parent="gpong3w6HoHgrcKHU_dl-5" vertex="1">
          <mxGeometry y="26" width="220" height="84" as="geometry" />
        </mxCell>
        <mxCell id="gpong3w6HoHgrcKHU_dl-7" value="" style="line;strokeWidth=1;fillColor=none;align=left;verticalAlign=middle;spacingTop=-1;spacingLeft=3;spacingRight=3;rotatable=0;labelPosition=right;points=[];portConstraint=eastwest;strokeColor=inherit;" parent="gpong3w6HoHgrcKHU_dl-5" vertex="1">
          <mxGeometry y="110" width="220" height="8" as="geometry" />
        </mxCell>
        <mxCell id="gpong3w6HoHgrcKHU_dl-8" value="+ AgentTank():&lt;div&gt;+ openNozzle(): void&lt;/div&gt;&lt;div&gt;+ closeNozzle(): void&lt;/div&gt;&lt;div&gt;+ isNozzleOpen(): boolean&lt;/div&gt;&lt;div&gt;+ refill(): void&lt;/div&gt;&lt;div&gt;+ isEmpty(): boolean&lt;/div&gt;&lt;div&gt;+ getCurrAgentAmount(): float&lt;/div&gt;&lt;div&gt;+ decreaseAgent(amount: float): void&lt;/div&gt;" style="text;strokeColor=none;fillColor=none;align=left;verticalAlign=top;spacingLeft=4;spacingRight=4;overflow=hidden;rotatable=0;points=[[0,0.5],[1,0.5]];portConstraint=eastwest;whiteSpace=wrap;html=1;" parent="gpong3w6HoHgrcKHU_dl-5" vertex="1">
          <mxGeometry y="118" width="220" height="132" as="geometry" />
        </mxCell>
        <mxCell id="gpong3w6HoHgrcKHU_dl-9" value="" style="endArrow=diamondThin;endFill=1;endSize=24;html=1;rounded=0;exitX=1;exitY=0.25;exitDx=0;exitDy=0;entryX=0.011;entryY=0.924;entryDx=0;entryDy=0;entryPerimeter=0;" parent="1" source="gpong3w6HoHgrcKHU_dl-5" target="gpong3w6HoHgrcKHU_dl-2" edge="1">
          <mxGeometry width="160" relative="1" as="geometry">
            <mxPoint x="-1287" y="-556" as="sourcePoint" />
            <mxPoint x="-2254" y="-626" as="targetPoint" />
          </mxGeometry>
        </mxCell>
        <mxCell id="gpong3w6HoHgrcKHU_dl-10" value="DroneInfo" style="swimlane;fontStyle=1;align=center;verticalAlign=top;childLayout=stackLayout;horizontal=1;startSize=26;horizontalStack=0;resizeParent=1;resizeParentMax=0;resizeLast=0;collapsible=1;marginBottom=0;whiteSpace=wrap;html=1;" parent="1" vertex="1">
          <mxGeometry x="-2850" y="-410" width="550" height="220" as="geometry" />
        </mxCell>
        <mxCell id="gpong3w6HoHgrcKHU_dl-11" value="- droneID: int&lt;div&gt;- position: Position&lt;/div&gt;&lt;div&gt;-&amp;nbsp;agentTankAmount: float&lt;/div&gt;&lt;div&gt;- stateID: DroneStateID&lt;/div&gt;" style="text;strokeColor=none;fillColor=none;align=left;verticalAlign=top;spacingLeft=4;spacingRight=4;overflow=hidden;rotatable=0;points=[[0,0.5],[1,0.5]];portConstraint=eastwest;whiteSpace=wrap;html=1;" parent="gpong3w6HoHgrcKHU_dl-10" vertex="1">
          <mxGeometry y="26" width="550" height="74" as="geometry" />
        </mxCell>
        <mxCell id="gpong3w6HoHgrcKHU_dl-12" value="" style="line;strokeWidth=1;fillColor=none;align=left;verticalAlign=middle;spacingTop=-1;spacingLeft=3;spacingRight=3;rotatable=0;labelPosition=right;points=[];portConstraint=eastwest;strokeColor=inherit;" parent="gpong3w6HoHgrcKHU_dl-10" vertex="1">
          <mxGeometry y="100" width="550" height="8" as="geometry" />
        </mxCell>
        <mxCell id="gpong3w6HoHgrcKHU_dl-13" value="+ DroneInfo(droneID: int, stateID: DroneStateID, position: Position, agentTankAmount: float)&lt;div&gt;&lt;div&gt;+ getStateID():&amp;nbsp;&lt;span style=&quot;background-color: transparent; color: light-dark(rgb(0, 0, 0), rgb(255, 255, 255));&quot;&gt;DroneStateID&lt;/span&gt;&lt;/div&gt;&lt;/div&gt;&lt;div&gt;&lt;span style=&quot;background-color: transparent; color: light-dark(rgb(0, 0, 0), rgb(255, 255, 255));&quot;&gt;+&amp;nbsp;&lt;/span&gt;&lt;span style=&quot;background-color: transparent;&quot;&gt;getDroneID(): int&lt;/span&gt;&lt;/div&gt;&lt;div&gt;+&amp;nbsp;getPosition(): Position&lt;/div&gt;&lt;div&gt;+&amp;nbsp;getAgentTankAmount(): float&lt;/div&gt;&lt;div&gt;+&amp;nbsp;toString(): String&lt;/div&gt;" style="text;strokeColor=none;fillColor=none;align=left;verticalAlign=top;spacingLeft=4;spacingRight=4;overflow=hidden;rotatable=0;points=[[0,0.5],[1,0.5]];portConstraint=eastwest;whiteSpace=wrap;html=1;" parent="gpong3w6HoHgrcKHU_dl-10" vertex="1">
          <mxGeometry y="108" width="550" height="112" as="geometry" />
        </mxCell>
        <mxCell id="gpong3w6HoHgrcKHU_dl-14" value="DroneScores" style="swimlane;fontStyle=1;align=center;verticalAlign=top;childLayout=stackLayout;horizontal=1;startSize=26;horizontalStack=0;resizeParent=1;resizeParentMax=0;resizeLast=0;collapsible=1;marginBottom=0;whiteSpace=wrap;html=1;" parent="1" vertex="1">
          <mxGeometry x="-2770" y="-170" width="330" height="130" as="geometry" />
        </mxCell>
        <mxCell id="gpong3w6HoHgrcKHU_dl-15" value="-scores:&amp;nbsp;&amp;nbsp;ArrayList&amp;lt;AbstractMap.Entry&amp;lt;Integer, Float&amp;gt;&amp;gt;" style="text;strokeColor=none;fillColor=none;align=left;verticalAlign=top;spacingLeft=4;spacingRight=4;overflow=hidden;rotatable=0;points=[[0,0.5],[1,0.5]];portConstraint=eastwest;whiteSpace=wrap;html=1;" parent="gpong3w6HoHgrcKHU_dl-14" vertex="1">
          <mxGeometry y="26" width="330" height="24" as="geometry" />
        </mxCell>
        <mxCell id="gpong3w6HoHgrcKHU_dl-16" value="" style="line;strokeWidth=1;fillColor=none;align=left;verticalAlign=middle;spacingTop=-1;spacingLeft=3;spacingRight=3;rotatable=0;labelPosition=right;points=[];portConstraint=eastwest;strokeColor=inherit;" parent="gpong3w6HoHgrcKHU_dl-14" vertex="1">
          <mxGeometry y="50" width="330" height="8" as="geometry" />
        </mxCell>
        <mxCell id="gpong3w6HoHgrcKHU_dl-17" value="+ DroneScores()&lt;div&gt;+ add(droneId:&amp;nbsp;&lt;span style=&quot;background-color: transparent; color: light-dark(rgb(0, 0, 0), rgb(255, 255, 255));&quot;&gt;Integer&lt;/span&gt;&lt;span style=&quot;background-color: transparent; color: light-dark(rgb(0, 0, 0), rgb(255, 255, 255));&quot;&gt;, droneScore:&amp;nbsp;&lt;/span&gt;&lt;span style=&quot;background-color: transparent; color: light-dark(rgb(0, 0, 0), rgb(255, 255, 255));&quot;&gt;Float&lt;/span&gt;&lt;span style=&quot;background-color: transparent; color: light-dark(rgb(0, 0, 0), rgb(255, 255, 255));&quot;&gt;): void&lt;/span&gt;&lt;/div&gt;&lt;div&gt;+ getScores():&lt;span style=&quot;background-color: transparent; color: light-dark(rgb(0, 0, 0), rgb(255, 255, 255));&quot;&gt;&amp;nbsp;&lt;/span&gt;&lt;span style=&quot;background-color: transparent; color: light-dark(rgb(0, 0, 0), rgb(255, 255, 255));&quot;&gt;ArrayList&amp;lt;Map.Entry&amp;lt;Integer, Float&amp;gt;&amp;gt;&lt;/span&gt;&lt;/div&gt;&lt;div&gt;+ toString():&amp;nbsp;&lt;span style=&quot;background-color: transparent; color: light-dark(rgb(0, 0, 0), rgb(255, 255, 255));&quot;&gt;String&lt;/span&gt;&lt;/div&gt;" style="text;strokeColor=none;fillColor=none;align=left;verticalAlign=top;spacingLeft=4;spacingRight=4;overflow=hidden;rotatable=0;points=[[0,0.5],[1,0.5]];portConstraint=eastwest;whiteSpace=wrap;html=1;" parent="gpong3w6HoHgrcKHU_dl-14" vertex="1">
          <mxGeometry y="58" width="330" height="72" as="geometry" />
        </mxCell>
        <mxCell id="gpong3w6HoHgrcKHU_dl-18" value="" style="endArrow=diamondThin;endFill=1;endSize=24;html=1;rounded=0;exitX=0.504;exitY=0.998;exitDx=0;exitDy=0;exitPerimeter=0;entryX=-0.012;entryY=0.878;entryDx=0;entryDy=0;entryPerimeter=0;" parent="1" source="gpong3w6HoHgrcKHU_dl-17" target="gpong3w6HoHgrcKHU_dl-4" edge="1">
          <mxGeometry width="160" relative="1" as="geometry">
            <mxPoint x="-2590" y="40" as="sourcePoint" />
            <mxPoint x="-2248" y="-71" as="targetPoint" />
            <Array as="points">
              <mxPoint x="-2604" y="-20" />
              <mxPoint x="-2420" y="-20" />
              <mxPoint x="-2420" y="-70" />
            </Array>
          </mxGeometry>
        </mxCell>
        <mxCell id="ytz2XxUED-rhMCgSk-kE-1" value="" style="endArrow=diamondThin;endFill=1;endSize=24;html=1;rounded=0;entryX=0.159;entryY=0.999;entryDx=0;entryDy=0;entryPerimeter=0;exitX=0.894;exitY=0.993;exitDx=0;exitDy=0;exitPerimeter=0;" edge="1" parent="1" source="gpong3w6HoHgrcKHU_dl-13" target="gpong3w6HoHgrcKHU_dl-4">
          <mxGeometry width="160" relative="1" as="geometry">
            <mxPoint x="-2370" y="-160" as="sourcePoint" />
            <mxPoint x="-2220" y="37" as="targetPoint" />
            <Array as="points">
              <mxPoint x="-2368" y="92" />
              <mxPoint x="-2220" y="92" />
              <mxPoint x="-2139" y="90" />
            </Array>
          </mxGeometry>
        </mxCell>
        <mxCell id="ytz2XxUED-rhMCgSk-kE-2" value="&lt;p style=&quot;margin:0px;margin-top:4px;text-align:center;&quot;&gt;&lt;i&gt;&amp;lt;&amp;lt;Interface&amp;gt;&amp;gt;&lt;/i&gt;&lt;br&gt;&lt;b&gt;DroneState&lt;/b&gt;&lt;/p&gt;&lt;hr size=&quot;1&quot; style=&quot;border-style:solid;&quot;&gt;&lt;p style=&quot;margin:0px;margin-left:4px;&quot;&gt;+ reqServiceZone(context: Drone): void&lt;br&gt;+ reqRelAgent(context: Drone): void&amp;nbsp;&lt;/p&gt;&lt;p style=&quot;margin:0px;margin-left:4px;&quot;&gt;+&amp;nbsp;reqRecall(context: Drone): void&lt;/p&gt;&lt;p style=&quot;margin:0px;margin-left:4px;&quot;&gt;+&amp;nbsp;emptyTank(context: Drone): void&lt;/p&gt;&lt;p style=&quot;margin:0px;margin-left:4px;&quot;&gt;+&amp;nbsp;fireExtinguished(context: Drone): void&lt;/p&gt;&lt;p style=&quot;margin:0px;margin-left:4px;&quot;&gt;+&amp;nbsp;reachDecelRange(context: Drone): void&lt;/p&gt;&lt;p style=&quot;margin:0px;margin-left:4px;&quot;&gt;+&amp;nbsp;reachDestination(context: Drone): void&lt;/p&gt;&lt;p style=&quot;margin:0px;margin-left:4px;&quot;&gt;+&amp;nbsp;reachMaxHeight(context: Drone): void&lt;/p&gt;&lt;p style=&quot;margin:0px;margin-left:4px;&quot;&gt;+&amp;nbsp;landed(context: Drone): void&lt;/p&gt;&lt;p style=&quot;margin:0px;margin-left:4px;&quot;&gt;+&amp;nbsp;reachTopSpeed(context: Drone): void&lt;/p&gt;" style="verticalAlign=top;align=left;overflow=fill;html=1;whiteSpace=wrap;" vertex="1" parent="1">
          <mxGeometry x="-2213.5" y="180" width="240" height="196" as="geometry" />
        </mxCell>
        <mxCell id="ytz2XxUED-rhMCgSk-kE-3" style="edgeStyle=orthogonalEdgeStyle;rounded=0;orthogonalLoop=1;jettySize=auto;html=1;entryX=0.5;entryY=1;entryDx=0;entryDy=0;endSize=10;endArrow=block;endFill=0;dashed=1;exitX=0.5;exitY=0;exitDx=0;exitDy=0;" edge="1" parent="1" source="ytz2XxUED-rhMCgSk-kE-4" target="ytz2XxUED-rhMCgSk-kE-2">
          <mxGeometry relative="1" as="geometry">
            <mxPoint x="-2195.5" y="436" as="sourcePoint" />
            <Array as="points">
              <mxPoint x="-2195.5" y="404" />
              <mxPoint x="-2093.5" y="404" />
            </Array>
          </mxGeometry>
        </mxCell>
        <mxCell id="ytz2XxUED-rhMCgSk-kE-4" value="&lt;p style=&quot;margin:0px;margin-top:4px;text-align:center;&quot;&gt;&lt;b&gt;Accelerating&lt;/b&gt;&lt;/p&gt;" style="verticalAlign=top;align=left;overflow=fill;html=1;whiteSpace=wrap;" vertex="1" parent="1">
          <mxGeometry x="-2240.5" y="436" width="90" height="30" as="geometry" />
        </mxCell>
        <mxCell id="ytz2XxUED-rhMCgSk-kE-5" style="edgeStyle=orthogonalEdgeStyle;rounded=0;orthogonalLoop=1;jettySize=auto;html=1;exitX=0.5;exitY=0;exitDx=0;exitDy=0;entryX=0.5;entryY=1;entryDx=0;entryDy=0;endArrow=block;endFill=0;endSize=10;dashed=1;" edge="1" parent="1" source="ytz2XxUED-rhMCgSk-kE-6" target="ytz2XxUED-rhMCgSk-kE-2">
          <mxGeometry relative="1" as="geometry" />
        </mxCell>
        <mxCell id="ytz2XxUED-rhMCgSk-kE-6" value="&lt;p style=&quot;margin:0px;margin-top:4px;text-align:center;&quot;&gt;&lt;b&gt;Arrived&amp;nbsp;&lt;/b&gt;&lt;/p&gt;" style="verticalAlign=top;align=left;overflow=fill;html=1;whiteSpace=wrap;" vertex="1" parent="1">
          <mxGeometry x="-2043.5" y="436" width="80" height="30" as="geometry" />
        </mxCell>
        <mxCell id="ytz2XxUED-rhMCgSk-kE-7" style="edgeStyle=orthogonalEdgeStyle;rounded=0;orthogonalLoop=1;jettySize=auto;html=1;exitX=0.5;exitY=0;exitDx=0;exitDy=0;entryX=0.5;entryY=1;entryDx=0;entryDy=0;endArrow=block;endFill=0;endSize=10;dashed=1;" edge="1" parent="1" source="ytz2XxUED-rhMCgSk-kE-8" target="ytz2XxUED-rhMCgSk-kE-2">
          <mxGeometry relative="1" as="geometry">
            <mxPoint x="-2073.5" y="396" as="targetPoint" />
          </mxGeometry>
        </mxCell>
        <mxCell id="ytz2XxUED-rhMCgSk-kE-8" value="&lt;p style=&quot;margin:0px;margin-top:4px;text-align:center;&quot;&gt;&lt;b&gt;Base&lt;/b&gt;&lt;/p&gt;" style="verticalAlign=top;align=left;overflow=fill;html=1;whiteSpace=wrap;" vertex="1" parent="1">
          <mxGeometry x="-2333.5" y="436" width="80" height="30" as="geometry" />
        </mxCell>
        <mxCell id="ytz2XxUED-rhMCgSk-kE-9" style="edgeStyle=orthogonalEdgeStyle;rounded=0;orthogonalLoop=1;jettySize=auto;html=1;exitX=0.5;exitY=0;exitDx=0;exitDy=0;entryX=0.5;entryY=1;entryDx=0;entryDy=0;endSize=10;endArrow=block;endFill=0;dashed=1;" edge="1" parent="1" source="ytz2XxUED-rhMCgSk-kE-10" target="ytz2XxUED-rhMCgSk-kE-2">
          <mxGeometry relative="1" as="geometry">
            <Array as="points">
              <mxPoint x="-2093.5" y="426" />
              <mxPoint x="-2093.5" y="426" />
            </Array>
          </mxGeometry>
        </mxCell>
        <mxCell id="ytz2XxUED-rhMCgSk-kE-10" value="&lt;p style=&quot;margin:0px;margin-top:4px;text-align:center;&quot;&gt;&lt;b&gt;Flying&amp;nbsp;&lt;/b&gt;&lt;/p&gt;" style="verticalAlign=top;align=left;overflow=fill;html=1;whiteSpace=wrap;" vertex="1" parent="1">
          <mxGeometry x="-2133.5" y="436" width="80" height="30" as="geometry" />
        </mxCell>
        <mxCell id="ytz2XxUED-rhMCgSk-kE-11" style="edgeStyle=orthogonalEdgeStyle;rounded=0;orthogonalLoop=1;jettySize=auto;html=1;exitX=0.5;exitY=0;exitDx=0;exitDy=0;entryX=0.5;entryY=1;entryDx=0;entryDy=0;endArrow=block;endFill=0;endSize=10;dashed=1;" edge="1" parent="1" source="ytz2XxUED-rhMCgSk-kE-12" target="ytz2XxUED-rhMCgSk-kE-2">
          <mxGeometry relative="1" as="geometry" />
        </mxCell>
        <mxCell id="ytz2XxUED-rhMCgSk-kE-12" value="&lt;p style=&quot;margin:0px;margin-top:4px;text-align:center;&quot;&gt;&lt;b&gt;Decelerating&lt;/b&gt;&lt;/p&gt;" style="verticalAlign=top;align=left;overflow=fill;html=1;whiteSpace=wrap;" vertex="1" parent="1">
          <mxGeometry x="-1953.5" y="436" width="90" height="30" as="geometry" />
        </mxCell>
        <mxCell id="ytz2XxUED-rhMCgSk-kE-13" style="edgeStyle=orthogonalEdgeStyle;rounded=0;orthogonalLoop=1;jettySize=auto;html=1;exitX=0.5;exitY=0;exitDx=0;exitDy=0;entryX=0.5;entryY=1;entryDx=0;entryDy=0;endSize=10;endArrow=block;endFill=0;dashed=1;" edge="1" parent="1" source="ytz2XxUED-rhMCgSk-kE-14" target="ytz2XxUED-rhMCgSk-kE-2">
          <mxGeometry relative="1" as="geometry" />
        </mxCell>
        <mxCell id="ytz2XxUED-rhMCgSk-kE-14" value="&lt;p style=&quot;margin:0px;margin-top:4px;text-align:center;&quot;&gt;&lt;b&gt;Idle&lt;/b&gt;&lt;/p&gt;" style="verticalAlign=top;align=left;overflow=fill;html=1;whiteSpace=wrap;" vertex="1" parent="1">
          <mxGeometry x="-2430" y="436" width="73" height="30" as="geometry" />
        </mxCell>
        <mxCell id="ytz2XxUED-rhMCgSk-kE-15" style="edgeStyle=orthogonalEdgeStyle;rounded=0;orthogonalLoop=1;jettySize=auto;html=1;exitX=0.5;exitY=0;exitDx=0;exitDy=0;entryX=0.5;entryY=1;entryDx=0;entryDy=0;endSize=10;endArrow=block;endFill=0;dashed=1;" edge="1" parent="1" source="ytz2XxUED-rhMCgSk-kE-16" target="ytz2XxUED-rhMCgSk-kE-2">
          <mxGeometry relative="1" as="geometry" />
        </mxCell>
        <mxCell id="ytz2XxUED-rhMCgSk-kE-16" value="&lt;p style=&quot;margin:0px;margin-top:4px;text-align:center;&quot;&gt;&lt;b&gt;Landing&amp;nbsp;&lt;/b&gt;&lt;/p&gt;" style="verticalAlign=top;align=left;overflow=fill;html=1;whiteSpace=wrap;" vertex="1" parent="1">
          <mxGeometry x="-1853.5" y="436" width="110" height="30" as="geometry" />
        </mxCell>
        <mxCell id="ytz2XxUED-rhMCgSk-kE-17" style="edgeStyle=orthogonalEdgeStyle;rounded=0;orthogonalLoop=1;jettySize=auto;html=1;exitX=0.5;exitY=0;exitDx=0;exitDy=0;entryX=0.5;entryY=1;entryDx=0;entryDy=0;endArrow=block;endFill=0;endSize=10;dashed=1;" edge="1" parent="1" source="ytz2XxUED-rhMCgSk-kE-18" target="ytz2XxUED-rhMCgSk-kE-2">
          <mxGeometry relative="1" as="geometry" />
        </mxCell>
        <mxCell id="ytz2XxUED-rhMCgSk-kE-18" value="&lt;p style=&quot;margin:0px;margin-top:4px;text-align:center;&quot;&gt;&lt;b&gt;ReleasingAgent&lt;/b&gt;&lt;/p&gt;" style="verticalAlign=top;align=left;overflow=fill;html=1;whiteSpace=wrap;" vertex="1" parent="1">
          <mxGeometry x="-1733.5" y="436" width="140" height="30" as="geometry" />
        </mxCell>
        <mxCell id="ytz2XxUED-rhMCgSk-kE-19" style="edgeStyle=orthogonalEdgeStyle;rounded=0;orthogonalLoop=1;jettySize=auto;html=1;exitX=0.5;exitY=0;exitDx=0;exitDy=0;entryX=0.5;entryY=1;entryDx=0;entryDy=0;endSize=10;endArrow=block;endFill=0;dashed=1;" edge="1" parent="1" source="ytz2XxUED-rhMCgSk-kE-20" target="ytz2XxUED-rhMCgSk-kE-2">
          <mxGeometry relative="1" as="geometry" />
        </mxCell>
        <mxCell id="ytz2XxUED-rhMCgSk-kE-20" value="&lt;p style=&quot;margin:0px;margin-top:4px;text-align:center;&quot;&gt;&lt;b&gt;Takeoff&lt;/b&gt;&lt;/p&gt;" style="verticalAlign=top;align=left;overflow=fill;html=1;whiteSpace=wrap;" vertex="1" parent="1">
          <mxGeometry x="-1583.5" y="436" width="87" height="30" as="geometry" />
        </mxCell>
        <mxCell id="ytz2XxUED-rhMCgSk-kE-21" value="&amp;lt;&amp;lt;enumeration&amp;gt;&amp;gt;&lt;br&gt;&lt;b&gt;DroneStateID&lt;/b&gt;" style="swimlane;fontStyle=0;align=center;verticalAlign=top;childLayout=stackLayout;horizontal=1;startSize=40;horizontalStack=0;resizeParent=1;resizeParentMax=0;resizeLast=0;collapsible=0;marginBottom=0;html=1;whiteSpace=wrap;" vertex="1" parent="1">
          <mxGeometry x="-1953.5" y="170" width="160" height="200" as="geometry" />
        </mxCell>
        <mxCell id="ytz2XxUED-rhMCgSk-kE-22" value="&lt;span style=&quot;text-wrap-mode: nowrap;&quot;&gt;BASE,&lt;/span&gt;&lt;div style=&quot;text-wrap-mode: nowrap;&quot;&gt;TAKEOFF,&lt;/div&gt;&lt;div style=&quot;text-wrap-mode: nowrap;&quot;&gt;ACCELERATING,&lt;/div&gt;&lt;div style=&quot;text-wrap-mode: nowrap;&quot;&gt;FLYING,&lt;/div&gt;&lt;div style=&quot;text-wrap-mode: nowrap;&quot;&gt;DECELERATING,&lt;/div&gt;&lt;div style=&quot;text-wrap-mode: nowrap;&quot;&gt;LANDING,&lt;/div&gt;&lt;div style=&quot;text-wrap-mode: nowrap;&quot;&gt;ARRIVED,&lt;/div&gt;&lt;div style=&quot;text-wrap-mode: nowrap;&quot;&gt;RELEASING_AGENT,&lt;/div&gt;&lt;div style=&quot;text-wrap-mode: nowrap;&quot;&gt;IDLE,&lt;/div&gt;&lt;div style=&quot;&quot;&gt;&lt;span style=&quot;text-wrap-mode: nowrap;&quot;&gt;UNDEFINED&lt;/span&gt;&lt;/div&gt;" style="text;html=1;strokeColor=none;fillColor=none;align=left;verticalAlign=middle;spacingLeft=4;spacingRight=4;overflow=hidden;rotatable=0;points=[[0,0.5],[1,0.5]];portConstraint=eastwest;whiteSpace=wrap;" vertex="1" parent="ytz2XxUED-rhMCgSk-kE-21">
          <mxGeometry y="40" width="160" height="160" as="geometry" />
        </mxCell>
        <mxCell id="ytz2XxUED-rhMCgSk-kE-23" value="" style="endArrow=diamondThin;endFill=1;endSize=24;html=1;rounded=0;exitX=0.5;exitY=0;exitDx=0;exitDy=0;entryX=0.185;entryY=1.002;entryDx=0;entryDy=0;entryPerimeter=0;" edge="1" parent="1" source="ytz2XxUED-rhMCgSk-kE-2">
          <mxGeometry width="160" relative="1" as="geometry">
            <mxPoint x="-1895.5" y="135" as="sourcePoint" />
            <mxPoint x="-2053.5" y="-10" as="targetPoint" />
            <Array as="points">
              <mxPoint x="-2093" y="105" />
              <mxPoint x="-2052.5" y="105" />
            </Array>
          </mxGeometry>
        </mxCell>
        <mxCell id="ytz2XxUED-rhMCgSk-kE-24" value="" style="endArrow=diamondThin;endFill=1;endSize=24;html=1;rounded=0;entryX=0.289;entryY=1.006;entryDx=0;entryDy=0;entryPerimeter=0;exitX=0.5;exitY=0;exitDx=0;exitDy=0;" edge="1" parent="1" source="ytz2XxUED-rhMCgSk-kE-21">
          <mxGeometry width="160" relative="1" as="geometry">
            <mxPoint x="-1655.5" y="125" as="sourcePoint" />
            <mxPoint x="-2020.5" y="-7" as="targetPoint" />
            <Array as="points">
              <mxPoint x="-1870" y="95" />
              <mxPoint x="-2022.5" y="95" />
            </Array>
          </mxGeometry>
        </mxCell>
        <mxCell id="ytz2XxUED-rhMCgSk-kE-25" value="DroneManager" style="swimlane;fontStyle=1;align=center;verticalAlign=top;childLayout=stackLayout;horizontal=1;startSize=26;horizontalStack=0;resizeParent=1;resizeParentMax=0;resizeLast=0;collapsible=1;marginBottom=0;whiteSpace=wrap;html=1;" vertex="1" parent="1">
          <mxGeometry x="-1110" y="-650" width="360" height="180" as="geometry" />
        </mxCell>
        <mxCell id="ytz2XxUED-rhMCgSk-kE-26" value="&lt;div&gt;- dronesMap:&amp;nbsp;&lt;span style=&quot;background-color: transparent; color: light-dark(rgb(0, 0, 0), rgb(255, 255, 255));&quot;&gt;Map&amp;lt;Integer, Drone&amp;gt;&lt;/span&gt;&lt;/div&gt;&lt;div&gt;&lt;span style=&quot;background-color: transparent; color: light-dark(rgb(0, 0, 0), rgb(255, 255, 255));&quot;&gt;- droneBuffer:&amp;nbsp;&lt;/span&gt;&lt;span style=&quot;background-color: transparent; color: light-dark(rgb(0, 0, 0), rgb(255, 255, 255));&quot;&gt;DroneBuffer&lt;/span&gt;&lt;/div&gt;" style="text;strokeColor=none;fillColor=none;align=left;verticalAlign=top;spacingLeft=4;spacingRight=4;overflow=hidden;rotatable=0;points=[[0,0.5],[1,0.5]];portConstraint=eastwest;whiteSpace=wrap;html=1;" vertex="1" parent="ytz2XxUED-rhMCgSk-kE-25">
          <mxGeometry y="26" width="360" height="44" as="geometry" />
        </mxCell>
        <mxCell id="ytz2XxUED-rhMCgSk-kE-27" value="" style="line;strokeWidth=1;fillColor=none;align=left;verticalAlign=middle;spacingTop=-1;spacingLeft=3;spacingRight=3;rotatable=0;labelPosition=right;points=[];portConstraint=eastwest;strokeColor=inherit;" vertex="1" parent="ytz2XxUED-rhMCgSk-kE-25">
          <mxGeometry y="70" width="360" height="8" as="geometry" />
        </mxCell>
        <mxCell id="ytz2XxUED-rhMCgSk-kE-28" value="+ DroneManager(droneBuffer: DroneBuffer)&lt;div&gt;&lt;div&gt;+ addDrone(drone: Drone): void&lt;/div&gt;&lt;div&gt;&lt;span style=&quot;background-color: transparent; color: light-dark(rgb(0, 0, 0), rgb(255, 255, 255));&quot;&gt;+ sendDroneInfo(droneID: int): void&lt;/span&gt;&lt;/div&gt;&lt;/div&gt;&lt;div&gt;&lt;span style=&quot;background-color: transparent;&quot;&gt;+ processSchedulerTasks(): void&lt;/span&gt;&lt;/div&gt;&lt;div&gt;&lt;span style=&quot;background-color: transparent;&quot;&gt;- dispatchTaskToDrone(drone: Drone, task:&amp;nbsp;&lt;/span&gt;&lt;span style=&quot;background-color: transparent; color: light-dark(rgb(0, 0, 0), rgb(255, 255, 255));&quot;&gt;DroneTask&lt;/span&gt;&lt;span style=&quot;background-color: transparent; color: light-dark(rgb(0, 0, 0), rgb(255, 255, 255));&quot;&gt;): void&lt;/span&gt;&lt;/div&gt;&lt;div&gt;&lt;span style=&quot;background-color: transparent;&quot;&gt;+ run(): void&lt;/span&gt;&lt;/div&gt;" style="text;strokeColor=none;fillColor=none;align=left;verticalAlign=top;spacingLeft=4;spacingRight=4;overflow=hidden;rotatable=0;points=[[0,0.5],[1,0.5]];portConstraint=eastwest;whiteSpace=wrap;html=1;" vertex="1" parent="ytz2XxUED-rhMCgSk-kE-25">
          <mxGeometry y="78" width="360" height="102" as="geometry" />
        </mxCell>
        <mxCell id="ytz2XxUED-rhMCgSk-kE-29" value="" style="endArrow=diamondThin;endFill=1;endSize=24;html=1;rounded=0;exitX=0.107;exitY=0.978;exitDx=0;exitDy=0;exitPerimeter=0;" edge="1" parent="1" source="ytz2XxUED-rhMCgSk-kE-28" target="gpong3w6HoHgrcKHU_dl-4">
          <mxGeometry width="160" relative="1" as="geometry">
            <mxPoint x="-1760" y="-612" as="sourcePoint" />
            <mxPoint x="-1810" y="-612" as="targetPoint" />
            <Array as="points">
              <mxPoint x="-1210" y="-170" />
              <mxPoint x="-1680" y="-160" />
              <mxPoint x="-1810" y="-160" />
            </Array>
          </mxGeometry>
        </mxCell>
        <mxCell id="ytz2XxUED-rhMCgSk-kE-30" value="DroneBuffer" style="swimlane;fontStyle=1;align=center;verticalAlign=top;childLayout=stackLayout;horizontal=1;startSize=26;horizontalStack=0;resizeParent=1;resizeParentMax=0;resizeLast=0;collapsible=1;marginBottom=0;whiteSpace=wrap;html=1;" vertex="1" parent="1">
          <mxGeometry x="-1643.5" y="-1020" width="350" height="220" as="geometry" />
        </mxCell>
        <mxCell id="ytz2XxUED-rhMCgSk-kE-31" value="&lt;div&gt;- droneInfos:&amp;nbsp;&lt;span style=&quot;background-color: transparent; color: light-dark(rgb(0, 0, 0), rgb(255, 255, 255));&quot;&gt;ArrayList&amp;lt;Object&amp;gt;&lt;/span&gt;&lt;span style=&quot;background-color: transparent; color: light-dark(rgb(0, 0, 0), rgb(255, 255, 255));&quot;&gt;&amp;nbsp;&lt;/span&gt;&lt;/div&gt;&lt;div&gt;- droneTasks:&amp;nbsp;&lt;span style=&quot;background-color: transparent; color: light-dark(rgb(0, 0, 0), rgb(255, 255, 255));&quot;&gt;ArrayList&amp;lt;DroneTask&amp;gt;&lt;/span&gt;&lt;span style=&quot;background-color: transparent; color: light-dark(rgb(0, 0, 0), rgb(255, 255, 255));&quot;&gt;&amp;nbsp;&lt;/span&gt;&lt;/div&gt;" style="text;strokeColor=none;fillColor=none;align=left;verticalAlign=top;spacingLeft=4;spacingRight=4;overflow=hidden;rotatable=0;points=[[0,0.5],[1,0.5]];portConstraint=eastwest;whiteSpace=wrap;html=1;" vertex="1" parent="ytz2XxUED-rhMCgSk-kE-30">
          <mxGeometry y="26" width="350" height="44" as="geometry" />
        </mxCell>
        <mxCell id="ytz2XxUED-rhMCgSk-kE-32" value="" style="line;strokeWidth=1;fillColor=none;align=left;verticalAlign=middle;spacingTop=-1;spacingLeft=3;spacingRight=3;rotatable=0;labelPosition=right;points=[];portConstraint=eastwest;strokeColor=inherit;" vertex="1" parent="ytz2XxUED-rhMCgSk-kE-30">
          <mxGeometry y="70" width="350" height="8" as="geometry" />
        </mxCell>
        <mxCell id="ytz2XxUED-rhMCgSk-kE-33" value="&lt;div&gt;+ DroneBuffer()&lt;/div&gt;&lt;div&gt;+ popDroneInfo():&amp;nbsp;&lt;span style=&quot;background-color: transparent; color: light-dark(rgb(0, 0, 0), rgb(255, 255, 255));&quot;&gt;Object&lt;/span&gt;&lt;span style=&quot;background-color: transparent; color: light-dark(rgb(0, 0, 0), rgb(255, 255, 255));&quot;&gt;&amp;nbsp;&lt;/span&gt;&lt;/div&gt;&lt;div&gt;&lt;span style=&quot;background-color: transparent;&quot;&gt;+ popDroneTask():&amp;nbsp;&lt;/span&gt;&lt;span style=&quot;background-color: transparent; color: light-dark(rgb(0, 0, 0), rgb(255, 255, 255));&quot;&gt;DroneTask&lt;/span&gt;&lt;/div&gt;&lt;div&gt;&lt;span style=&quot;background-color: transparent;&quot;&gt;+ addDroneTask(task:&amp;nbsp;&lt;/span&gt;&lt;span style=&quot;background-color: transparent; color: light-dark(rgb(0, 0, 0), rgb(255, 255, 255));&quot;&gt;DroneTask&lt;/span&gt;&lt;span style=&quot;background-color: transparent; color: light-dark(rgb(0, 0, 0), rgb(255, 255, 255));&quot;&gt;): void&lt;/span&gt;&lt;/div&gt;&lt;div&gt;&lt;span style=&quot;background-color: transparent;&quot;&gt;+ addDroneInfo(info:&amp;nbsp;&lt;/span&gt;&lt;span style=&quot;background-color: transparent; color: light-dark(rgb(0, 0, 0), rgb(255, 255, 255));&quot;&gt;DroneInfo&lt;/span&gt;&lt;span style=&quot;background-color: transparent; color: light-dark(rgb(0, 0, 0), rgb(255, 255, 255));&quot;&gt;): void&amp;nbsp;&lt;/span&gt;&lt;/div&gt;&lt;div&gt;&lt;span style=&quot;background-color: transparent;&quot;&gt;+ addDroneInfo(infoList:&amp;nbsp;&lt;/span&gt;&lt;span style=&quot;background-color: transparent; color: light-dark(rgb(0, 0, 0), rgb(255, 255, 255));&quot;&gt;ArrayList&amp;lt;DroneInfo&amp;gt;&lt;/span&gt;&lt;span style=&quot;background-color: transparent; color: light-dark(rgb(0, 0, 0), rgb(255, 255, 255));&quot;&gt;): void&lt;/span&gt;&lt;/div&gt;&lt;div&gt;&lt;span style=&quot;background-color: transparent;&quot;&gt;+ waitForTask(): void&lt;/span&gt;&lt;/div&gt;&lt;div&gt;&lt;span style=&quot;background-color: transparent;&quot;&gt;+ hasDroneInfo():&amp;nbsp;&lt;/span&gt;&lt;span style=&quot;background-color: transparent; color: light-dark(rgb(0, 0, 0), rgb(255, 255, 255));&quot;&gt;boolean&lt;/span&gt;&lt;/div&gt;&lt;div&gt;&lt;span style=&quot;background-color: transparent;&quot;&gt;+ hasDroneTask(): boolean&lt;/span&gt;&lt;/div&gt;&lt;div&gt;&lt;br&gt;&lt;/div&gt;" style="text;strokeColor=none;fillColor=none;align=left;verticalAlign=top;spacingLeft=4;spacingRight=4;overflow=hidden;rotatable=0;points=[[0,0.5],[1,0.5]];portConstraint=eastwest;whiteSpace=wrap;html=1;" vertex="1" parent="ytz2XxUED-rhMCgSk-kE-30">
          <mxGeometry y="78" width="350" height="142" as="geometry" />
        </mxCell>
        <mxCell id="ytz2XxUED-rhMCgSk-kE-34" value="" style="endArrow=diamondThin;endFill=1;endSize=24;html=1;rounded=0;entryX=1;entryY=0.5;entryDx=0;entryDy=0;exitX=0.3;exitY=0.012;exitDx=0;exitDy=0;exitPerimeter=0;" edge="1" parent="1" source="ytz2XxUED-rhMCgSk-kE-30" target="gpong3w6HoHgrcKHU_dl-2">
          <mxGeometry width="160" relative="1" as="geometry">
            <mxPoint x="-1664" y="-1380" as="sourcePoint" />
            <mxPoint x="-1930" y="-1376" as="targetPoint" />
            <Array as="points">
              <mxPoint x="-1540" y="-1090" />
              <mxPoint x="-1760" y="-1090" />
              <mxPoint x="-1760" y="-812" />
            </Array>
          </mxGeometry>
        </mxCell>
        <mxCell id="ytz2XxUED-rhMCgSk-kE-35" value="DroneTask" style="swimlane;fontStyle=1;align=center;verticalAlign=top;childLayout=stackLayout;horizontal=1;startSize=26;horizontalStack=0;resizeParent=1;resizeParentMax=0;resizeLast=0;collapsible=1;marginBottom=0;whiteSpace=wrap;html=1;" vertex="1" parent="1">
          <mxGeometry x="-1620" y="-690" width="310" height="220" as="geometry" />
        </mxCell>
        <mxCell id="ytz2XxUED-rhMCgSk-kE-36" value="&lt;div&gt;- droneID:&amp;nbsp;&lt;span style=&quot;background-color: transparent; color: light-dark(rgb(0, 0, 0), rgb(255, 255, 255));&quot;&gt;int&lt;/span&gt;&lt;/div&gt;&lt;div&gt;- taskType:&amp;nbsp;&lt;span style=&quot;background-color: transparent; color: light-dark(rgb(0, 0, 0), rgb(255, 255, 255));&quot;&gt;DroneTaskType&lt;/span&gt;&lt;/div&gt;&lt;div&gt;- zone:&amp;nbsp;&lt;span style=&quot;background-color: transparent; color: light-dark(rgb(0, 0, 0), rgb(255, 255, 255));&quot;&gt;Zone&lt;/span&gt;&lt;/div&gt;" style="text;strokeColor=none;fillColor=none;align=left;verticalAlign=top;spacingLeft=4;spacingRight=4;overflow=hidden;rotatable=0;points=[[0,0.5],[1,0.5]];portConstraint=eastwest;whiteSpace=wrap;html=1;" vertex="1" parent="ytz2XxUED-rhMCgSk-kE-35">
          <mxGeometry y="26" width="310" height="54" as="geometry" />
        </mxCell>
        <mxCell id="ytz2XxUED-rhMCgSk-kE-37" value="" style="line;strokeWidth=1;fillColor=none;align=left;verticalAlign=middle;spacingTop=-1;spacingLeft=3;spacingRight=3;rotatable=0;labelPosition=right;points=[];portConstraint=eastwest;strokeColor=inherit;" vertex="1" parent="ytz2XxUED-rhMCgSk-kE-35">
          <mxGeometry y="80" width="310" height="8" as="geometry" />
        </mxCell>
        <mxCell id="ytz2XxUED-rhMCgSk-kE-38" value="&lt;div&gt;+ DroneTask(droneID: int, droneTaskType:&amp;nbsp;&lt;span style=&quot;background-color: transparent; color: light-dark(rgb(0, 0, 0), rgb(255, 255, 255));&quot;&gt;DroneTaskType&lt;/span&gt;&lt;span style=&quot;background-color: transparent; color: light-dark(rgb(0, 0, 0), rgb(255, 255, 255));&quot;&gt;)&lt;/span&gt;&lt;/div&gt;&lt;div&gt;&lt;span style=&quot;background-color: transparent;&quot;&gt;+DroneTask(droneID: int, droneTaskType:&amp;nbsp;&lt;/span&gt;&lt;span style=&quot;background-color: transparent; color: light-dark(rgb(0, 0, 0), rgb(255, 255, 255));&quot;&gt;DroneTaskType&lt;/span&gt;&lt;span style=&quot;background-color: transparent; color: light-dark(rgb(0, 0, 0), rgb(255, 255, 255));&quot;&gt;, zone:&amp;nbsp;&lt;/span&gt;&lt;span style=&quot;background-color: transparent; color: light-dark(rgb(0, 0, 0), rgb(255, 255, 255));&quot;&gt;Zone&lt;/span&gt;&lt;span style=&quot;background-color: transparent; color: light-dark(rgb(0, 0, 0), rgb(255, 255, 255));&quot;&gt;)&lt;/span&gt;&lt;/div&gt;&lt;div&gt;&lt;span style=&quot;background-color: transparent;&quot;&gt;+ getDroneID(): int&lt;/span&gt;&lt;/div&gt;&lt;div&gt;&lt;span style=&quot;background-color: transparent;&quot;&gt;+ getDroneTaskType():&amp;nbsp;&lt;/span&gt;&lt;span style=&quot;background-color: transparent; color: light-dark(rgb(0, 0, 0), rgb(255, 255, 255));&quot;&gt;DroneTaskType&lt;/span&gt;&lt;/div&gt;&lt;div&gt;&lt;span style=&quot;background-color: transparent;&quot;&gt;+ getZone():&amp;nbsp;&lt;/span&gt;&lt;span style=&quot;background-color: transparent; color: light-dark(rgb(0, 0, 0), rgb(255, 255, 255));&quot;&gt;Zone&lt;/span&gt;&lt;/div&gt;&lt;div&gt;&lt;span style=&quot;background-color: transparent;&quot;&gt;+ getTaskType():&amp;nbsp;&lt;/span&gt;&lt;span style=&quot;background-color: transparent; color: light-dark(rgb(0, 0, 0), rgb(255, 255, 255));&quot;&gt;DroneTaskType&lt;/span&gt;&lt;/div&gt;&lt;div&gt;&lt;br&gt;&lt;/div&gt;" style="text;strokeColor=none;fillColor=none;align=left;verticalAlign=top;spacingLeft=4;spacingRight=4;overflow=hidden;rotatable=0;points=[[0,0.5],[1,0.5]];portConstraint=eastwest;whiteSpace=wrap;html=1;" vertex="1" parent="ytz2XxUED-rhMCgSk-kE-35">
          <mxGeometry y="88" width="310" height="132" as="geometry" />
        </mxCell>
        <mxCell id="ytz2XxUED-rhMCgSk-kE-39" value="" style="endArrow=diamondThin;endFill=0;endSize=24;html=1;rounded=0;entryX=0.502;entryY=1.03;entryDx=0;entryDy=0;entryPerimeter=0;exitX=0.5;exitY=0;exitDx=0;exitDy=0;" edge="1" parent="1" source="ytz2XxUED-rhMCgSk-kE-35" target="ytz2XxUED-rhMCgSk-kE-33">
          <mxGeometry width="160" relative="1" as="geometry">
            <mxPoint x="-1604" y="-1090" as="sourcePoint" />
            <mxPoint x="-2567" y="-1720" as="targetPoint" />
            <Array as="points" />
          </mxGeometry>
        </mxCell>
        <mxCell id="ytz2XxUED-rhMCgSk-kE-40" value="&amp;lt;&amp;lt;enumeration&amp;gt;&amp;gt;&lt;br&gt;&lt;b&gt;DroneTaskType&lt;/b&gt;" style="swimlane;fontStyle=0;align=center;verticalAlign=top;childLayout=stackLayout;horizontal=1;startSize=40;horizontalStack=0;resizeParent=1;resizeParentMax=0;resizeLast=0;collapsible=0;marginBottom=0;html=1;whiteSpace=wrap;" vertex="1" parent="1">
          <mxGeometry x="-1470" y="-300" width="160" height="110" as="geometry" />
        </mxCell>
        <mxCell id="ytz2XxUED-rhMCgSk-kE-41" value="&lt;span style=&quot;text-wrap-mode: nowrap;&quot;&gt;SERVICE_ZONE,&lt;/span&gt;&lt;div&gt;&lt;span style=&quot;text-wrap-mode: nowrap;&quot;&gt;RELEASE_AGENT,&lt;/span&gt;&lt;/div&gt;&lt;div&gt;&lt;span style=&quot;text-wrap-mode: nowrap;&quot;&gt;RECALL,&lt;/span&gt;&lt;/div&gt;&lt;div&gt;&lt;span style=&quot;text-wrap-mode: nowrap;&quot;&gt;REQUEST_ALL_INFO&lt;/span&gt;&lt;/div&gt;" style="text;html=1;strokeColor=none;fillColor=none;align=left;verticalAlign=middle;spacingLeft=4;spacingRight=4;overflow=hidden;rotatable=0;points=[[0,0.5],[1,0.5]];portConstraint=eastwest;whiteSpace=wrap;" vertex="1" parent="ytz2XxUED-rhMCgSk-kE-40">
          <mxGeometry y="40" width="160" height="70" as="geometry" />
        </mxCell>
        <mxCell id="ytz2XxUED-rhMCgSk-kE-42" value="" style="endArrow=diamondThin;endFill=1;endSize=24;html=1;rounded=0;entryX=0.736;entryY=0.975;entryDx=0;entryDy=0;entryPerimeter=0;exitX=0.5;exitY=0;exitDx=0;exitDy=0;" edge="1" parent="1" source="ytz2XxUED-rhMCgSk-kE-40" target="ytz2XxUED-rhMCgSk-kE-38">
          <mxGeometry width="160" relative="1" as="geometry">
            <mxPoint x="-1600" y="-213" as="sourcePoint" />
            <mxPoint x="-1695" y="-670" as="targetPoint" />
            <Array as="points">
              <mxPoint x="-1390" y="-310" />
            </Array>
          </mxGeometry>
        </mxCell>
      </root>
    </mxGraphModel>
  </diagram>
</mxfile>
